<mxfile host="app.diagrams.net" modified="2023-12-18T01:00:14.214Z" agent="Mozilla/5.0 (Windows NT 10.0; Win64; x64) AppleWebKit/537.36 (KHTML, like Gecko) Chrome/120.0.0.0 Safari/537.36" etag="6aQgeqRuyJbUwR0a3sGn" version="22.1.11" type="device">
  <diagram name="Trang-1" id="ZpgR856tK26xUgtNIysk">
    <mxGraphModel dx="-91" dy="1413" grid="0" gridSize="10" guides="1" tooltips="1" connect="1" arrows="1" fold="1" page="0" pageScale="1" pageWidth="3300" pageHeight="4681" math="0" shadow="0">
      <root>
        <mxCell id="0" />
        <mxCell id="1" parent="0" />
        <mxCell id="8zIh_uZjIX3sih27jP3o-1" value="Supplier&amp;nbsp;&lt;br&gt;(Nhà cung cấp)" style="rounded=0;whiteSpace=wrap;html=1;" parent="1" vertex="1">
          <mxGeometry x="2550" y="70" width="110" height="40" as="geometry" />
        </mxCell>
        <mxCell id="8zIh_uZjIX3sih27jP3o-2" value="&lt;u&gt;supplier_id&lt;/u&gt;" style="ellipse;whiteSpace=wrap;html=1;" parent="1" vertex="1">
          <mxGeometry x="2470" y="40" width="80" height="30" as="geometry" />
        </mxCell>
        <mxCell id="8zIh_uZjIX3sih27jP3o-3" value="&lt;u&gt;order_detail_id&lt;/u&gt;" style="ellipse;whiteSpace=wrap;html=1;" parent="1" vertex="1">
          <mxGeometry x="2980" y="210" width="100" height="30" as="geometry" />
        </mxCell>
        <mxCell id="8zIh_uZjIX3sih27jP3o-4" value="supplier_email" style="ellipse;whiteSpace=wrap;html=1;" parent="1" vertex="1">
          <mxGeometry x="2490" y="150" width="90" height="30" as="geometry" />
        </mxCell>
        <mxCell id="8zIh_uZjIX3sih27jP3o-5" value="supplier_phone" style="ellipse;whiteSpace=wrap;html=1;" parent="1" vertex="1">
          <mxGeometry x="2440" y="90" width="100" height="30" as="geometry" />
        </mxCell>
        <mxCell id="8zIh_uZjIX3sih27jP3o-6" value="supplier_address" style="ellipse;whiteSpace=wrap;html=1;" parent="1" vertex="1">
          <mxGeometry x="2652.5" y="-20" width="100" height="30" as="geometry" />
        </mxCell>
        <mxCell id="8zIh_uZjIX3sih27jP3o-7" value="supplier_name" style="ellipse;whiteSpace=wrap;html=1;" parent="1" vertex="1">
          <mxGeometry x="2457.5" y="-10" width="90" height="30" as="geometry" />
        </mxCell>
        <mxCell id="8zIh_uZjIX3sih27jP3o-8" value="" style="endArrow=none;html=1;rounded=0;exitX=0.5;exitY=1;exitDx=0;exitDy=0;entryX=0.75;entryY=0;entryDx=0;entryDy=0;" parent="1" source="8zIh_uZjIX3sih27jP3o-6" target="8zIh_uZjIX3sih27jP3o-1" edge="1">
          <mxGeometry width="50" height="50" relative="1" as="geometry">
            <mxPoint x="2630" y="190" as="sourcePoint" />
            <mxPoint x="2680" y="140" as="targetPoint" />
          </mxGeometry>
        </mxCell>
        <mxCell id="8zIh_uZjIX3sih27jP3o-9" value="" style="endArrow=none;html=1;rounded=0;exitX=0.5;exitY=1;exitDx=0;exitDy=0;entryX=0.5;entryY=0;entryDx=0;entryDy=0;" parent="1" source="8zIh_uZjIX3sih27jP3o-7" target="8zIh_uZjIX3sih27jP3o-1" edge="1">
          <mxGeometry width="50" height="50" relative="1" as="geometry">
            <mxPoint x="2730" y="80" as="sourcePoint" />
            <mxPoint x="2643" y="80" as="targetPoint" />
          </mxGeometry>
        </mxCell>
        <mxCell id="8zIh_uZjIX3sih27jP3o-10" value="" style="endArrow=none;html=1;rounded=0;exitX=0.98;exitY=0.247;exitDx=0;exitDy=0;entryX=0;entryY=0.25;entryDx=0;entryDy=0;exitPerimeter=0;" parent="1" source="8zIh_uZjIX3sih27jP3o-5" target="8zIh_uZjIX3sih27jP3o-1" edge="1">
          <mxGeometry width="50" height="50" relative="1" as="geometry">
            <mxPoint x="2620" y="40" as="sourcePoint" />
            <mxPoint x="2615" y="80" as="targetPoint" />
          </mxGeometry>
        </mxCell>
        <mxCell id="8zIh_uZjIX3sih27jP3o-11" value="" style="endArrow=none;html=1;rounded=0;exitX=0.667;exitY=0;exitDx=0;exitDy=0;entryX=0.25;entryY=1;entryDx=0;entryDy=0;exitPerimeter=0;" parent="1" source="8zIh_uZjIX3sih27jP3o-4" target="8zIh_uZjIX3sih27jP3o-1" edge="1">
          <mxGeometry width="50" height="50" relative="1" as="geometry">
            <mxPoint x="2630" y="50" as="sourcePoint" />
            <mxPoint x="2625" y="90" as="targetPoint" />
          </mxGeometry>
        </mxCell>
        <mxCell id="8zIh_uZjIX3sih27jP3o-12" value="" style="endArrow=none;html=1;rounded=0;exitX=1;exitY=0.5;exitDx=0;exitDy=0;entryX=0.385;entryY=0.005;entryDx=0;entryDy=0;entryPerimeter=0;" parent="1" source="8zIh_uZjIX3sih27jP3o-2" target="8zIh_uZjIX3sih27jP3o-1" edge="1">
          <mxGeometry width="50" height="50" relative="1" as="geometry">
            <mxPoint x="2640" y="60" as="sourcePoint" />
            <mxPoint x="2635" y="100" as="targetPoint" />
          </mxGeometry>
        </mxCell>
        <mxCell id="8zIh_uZjIX3sih27jP3o-13" value="PurchaseOrder&lt;br&gt;(Đơn đặt hàng)" style="rounded=0;whiteSpace=wrap;html=1;" parent="1" vertex="1">
          <mxGeometry x="2860" y="70" width="110" height="40" as="geometry" />
        </mxCell>
        <mxCell id="8zIh_uZjIX3sih27jP3o-14" value="&lt;u&gt;order_id&lt;/u&gt;" style="ellipse;whiteSpace=wrap;html=1;" parent="1" vertex="1">
          <mxGeometry x="2820" y="20" width="100" height="30" as="geometry" />
        </mxCell>
        <mxCell id="8zIh_uZjIX3sih27jP3o-15" value="status" style="ellipse;whiteSpace=wrap;html=1;" parent="1" vertex="1">
          <mxGeometry x="2980" y="130" width="80" height="20" as="geometry" />
        </mxCell>
        <mxCell id="8zIh_uZjIX3sih27jP3o-16" value="order_date" style="ellipse;whiteSpace=wrap;html=1;" parent="1" vertex="1">
          <mxGeometry x="2990" y="10" width="80" height="30" as="geometry" />
        </mxCell>
        <mxCell id="8zIh_uZjIX3sih27jP3o-17" value="supplier_id" style="ellipse;whiteSpace=wrap;html=1;" parent="1" vertex="1">
          <mxGeometry x="2910" y="-5" width="90" height="30" as="geometry" />
        </mxCell>
        <mxCell id="8zIh_uZjIX3sih27jP3o-19" value="" style="endArrow=none;html=1;rounded=0;exitX=0.75;exitY=1;exitDx=0;exitDy=0;" parent="1" source="8zIh_uZjIX3sih27jP3o-13" target="8zIh_uZjIX3sih27jP3o-15" edge="1">
          <mxGeometry width="50" height="50" relative="1" as="geometry">
            <mxPoint x="2680" y="170" as="sourcePoint" />
            <mxPoint x="2730" y="120" as="targetPoint" />
          </mxGeometry>
        </mxCell>
        <mxCell id="8zIh_uZjIX3sih27jP3o-20" value="" style="endArrow=none;html=1;rounded=0;entryX=0;entryY=0.5;entryDx=0;entryDy=0;exitX=1;exitY=0.25;exitDx=0;exitDy=0;" parent="1" source="8zIh_uZjIX3sih27jP3o-13" target="8zIh_uZjIX3sih27jP3o-16" edge="1">
          <mxGeometry width="50" height="50" relative="1" as="geometry">
            <mxPoint x="2680" y="170" as="sourcePoint" />
            <mxPoint x="2730" y="120" as="targetPoint" />
          </mxGeometry>
        </mxCell>
        <mxCell id="8zIh_uZjIX3sih27jP3o-21" value="" style="endArrow=none;html=1;rounded=0;entryX=0.284;entryY=1.033;entryDx=0;entryDy=0;entryPerimeter=0;" parent="1" source="8zIh_uZjIX3sih27jP3o-13" target="8zIh_uZjIX3sih27jP3o-17" edge="1">
          <mxGeometry width="50" height="50" relative="1" as="geometry">
            <mxPoint x="2680" y="170" as="sourcePoint" />
            <mxPoint x="2730" y="120" as="targetPoint" />
          </mxGeometry>
        </mxCell>
        <mxCell id="8zIh_uZjIX3sih27jP3o-22" value="" style="endArrow=none;html=1;rounded=0;entryX=0.5;entryY=1;entryDx=0;entryDy=0;exitX=0.25;exitY=0;exitDx=0;exitDy=0;" parent="1" source="8zIh_uZjIX3sih27jP3o-13" target="8zIh_uZjIX3sih27jP3o-14" edge="1">
          <mxGeometry width="50" height="50" relative="1" as="geometry">
            <mxPoint x="2680" y="170" as="sourcePoint" />
            <mxPoint x="2730" y="120" as="targetPoint" />
          </mxGeometry>
        </mxCell>
        <mxCell id="8zIh_uZjIX3sih27jP3o-23" value="OrderDetail&lt;br&gt;(Chi tiết đơn đặt hàng)" style="rounded=0;whiteSpace=wrap;html=1;" parent="1" vertex="1">
          <mxGeometry x="2845" y="260" width="140" height="40" as="geometry" />
        </mxCell>
        <mxCell id="8zIh_uZjIX3sih27jP3o-24" value="unit_price" style="ellipse;whiteSpace=wrap;html=1;" parent="1" vertex="1">
          <mxGeometry x="2975" y="330" width="90" height="20" as="geometry" />
        </mxCell>
        <mxCell id="8zIh_uZjIX3sih27jP3o-25" value="quantity" style="ellipse;whiteSpace=wrap;html=1;" parent="1" vertex="1">
          <mxGeometry x="3030" y="300" width="80" height="20" as="geometry" />
        </mxCell>
        <mxCell id="8zIh_uZjIX3sih27jP3o-26" value="product_id" style="ellipse;whiteSpace=wrap;html=1;" parent="1" vertex="1">
          <mxGeometry x="3040" y="270" width="80" height="30" as="geometry" />
        </mxCell>
        <mxCell id="8zIh_uZjIX3sih27jP3o-27" value="order_id" style="ellipse;whiteSpace=wrap;html=1;" parent="1" vertex="1">
          <mxGeometry x="3040" y="240" width="80" height="20" as="geometry" />
        </mxCell>
        <mxCell id="8zIh_uZjIX3sih27jP3o-28" value="" style="endArrow=none;html=1;rounded=0;entryX=0.5;entryY=1;entryDx=0;entryDy=0;exitX=0.917;exitY=-0.014;exitDx=0;exitDy=0;exitPerimeter=0;" parent="1" source="8zIh_uZjIX3sih27jP3o-23" target="8zIh_uZjIX3sih27jP3o-3" edge="1">
          <mxGeometry width="50" height="50" relative="1" as="geometry">
            <mxPoint x="2850" y="390" as="sourcePoint" />
            <mxPoint x="2900" y="340" as="targetPoint" />
          </mxGeometry>
        </mxCell>
        <mxCell id="8zIh_uZjIX3sih27jP3o-29" value="" style="endArrow=none;html=1;rounded=0;entryX=0.392;entryY=0.95;entryDx=0;entryDy=0;entryPerimeter=0;" parent="1" source="8zIh_uZjIX3sih27jP3o-23" target="8zIh_uZjIX3sih27jP3o-27" edge="1">
          <mxGeometry width="50" height="50" relative="1" as="geometry">
            <mxPoint x="2860" y="380" as="sourcePoint" />
            <mxPoint x="2910" y="330" as="targetPoint" />
          </mxGeometry>
        </mxCell>
        <mxCell id="8zIh_uZjIX3sih27jP3o-30" value="" style="endArrow=none;html=1;rounded=0;entryX=0;entryY=1;entryDx=0;entryDy=0;exitX=1;exitY=0.25;exitDx=0;exitDy=0;" parent="1" source="8zIh_uZjIX3sih27jP3o-23" target="8zIh_uZjIX3sih27jP3o-26" edge="1">
          <mxGeometry width="50" height="50" relative="1" as="geometry">
            <mxPoint x="2980" y="350" as="sourcePoint" />
            <mxPoint x="3030" y="300" as="targetPoint" />
          </mxGeometry>
        </mxCell>
        <mxCell id="8zIh_uZjIX3sih27jP3o-31" value="" style="endArrow=none;html=1;rounded=0;entryX=0;entryY=0.5;entryDx=0;entryDy=0;exitX=1;exitY=0.75;exitDx=0;exitDy=0;" parent="1" source="8zIh_uZjIX3sih27jP3o-23" target="8zIh_uZjIX3sih27jP3o-25" edge="1">
          <mxGeometry width="50" height="50" relative="1" as="geometry">
            <mxPoint x="2950" y="370" as="sourcePoint" />
            <mxPoint x="3000" y="320" as="targetPoint" />
          </mxGeometry>
        </mxCell>
        <mxCell id="8zIh_uZjIX3sih27jP3o-32" value="" style="endArrow=none;html=1;rounded=0;entryX=0;entryY=0.5;entryDx=0;entryDy=0;exitX=1;exitY=1;exitDx=0;exitDy=0;" parent="1" source="8zIh_uZjIX3sih27jP3o-23" target="8zIh_uZjIX3sih27jP3o-24" edge="1">
          <mxGeometry width="50" height="50" relative="1" as="geometry">
            <mxPoint x="3020" y="360" as="sourcePoint" />
            <mxPoint x="3070" y="310" as="targetPoint" />
          </mxGeometry>
        </mxCell>
        <mxCell id="8zIh_uZjIX3sih27jP3o-33" value="Product&lt;br&gt;(Sản phẩm)" style="rounded=0;whiteSpace=wrap;html=1;" parent="1" vertex="1">
          <mxGeometry x="2860" y="435" width="110" height="35" as="geometry" />
        </mxCell>
        <mxCell id="8zIh_uZjIX3sih27jP3o-35" value="color" style="ellipse;whiteSpace=wrap;html=1;" parent="1" vertex="1">
          <mxGeometry x="2690" y="20" width="70" height="20" as="geometry" />
        </mxCell>
        <mxCell id="8zIh_uZjIX3sih27jP3o-36" value="size" style="ellipse;whiteSpace=wrap;html=1;" parent="1" vertex="1">
          <mxGeometry x="2700" y="498" width="75" height="30" as="geometry" />
        </mxCell>
        <mxCell id="8zIh_uZjIX3sih27jP3o-37" value="input_price" style="ellipse;whiteSpace=wrap;html=1;" parent="1" vertex="1">
          <mxGeometry x="2827.5" y="373" width="80" height="30" as="geometry" />
        </mxCell>
        <mxCell id="8zIh_uZjIX3sih27jP3o-38" value="description" style="ellipse;whiteSpace=wrap;html=1;" parent="1" vertex="1">
          <mxGeometry x="2660" y="463" width="100" height="30" as="geometry" />
        </mxCell>
        <mxCell id="8zIh_uZjIX3sih27jP3o-39" value="product_name" style="ellipse;whiteSpace=wrap;html=1;" parent="1" vertex="1">
          <mxGeometry x="2642.5" y="427" width="110" height="30" as="geometry" />
        </mxCell>
        <mxCell id="8zIh_uZjIX3sih27jP3o-40" value="brand_id" style="ellipse;whiteSpace=wrap;html=1;" parent="1" vertex="1">
          <mxGeometry x="2745" y="412.5" width="90" height="30" as="geometry" />
        </mxCell>
        <mxCell id="8zIh_uZjIX3sih27jP3o-41" value="&lt;u&gt;product_id&lt;/u&gt;" style="ellipse;whiteSpace=wrap;html=1;" parent="1" vertex="1">
          <mxGeometry x="2730" y="378" width="90" height="30" as="geometry" />
        </mxCell>
        <mxCell id="8zIh_uZjIX3sih27jP3o-42" value="quantity" style="ellipse;whiteSpace=wrap;html=1;" parent="1" vertex="1">
          <mxGeometry x="2750" y="355" width="80" height="20" as="geometry" />
        </mxCell>
        <mxCell id="8zIh_uZjIX3sih27jP3o-43" value="" style="endArrow=none;html=1;rounded=0;entryX=1;entryY=0.5;entryDx=0;entryDy=0;exitX=0;exitY=0;exitDx=0;exitDy=0;" parent="1" source="8zIh_uZjIX3sih27jP3o-33" target="8zIh_uZjIX3sih27jP3o-41" edge="1">
          <mxGeometry width="50" height="50" relative="1" as="geometry">
            <mxPoint x="2770" y="550" as="sourcePoint" />
            <mxPoint x="2820" y="500" as="targetPoint" />
          </mxGeometry>
        </mxCell>
        <mxCell id="8zIh_uZjIX3sih27jP3o-44" value="" style="endArrow=none;html=1;rounded=0;entryX=1;entryY=0.5;entryDx=0;entryDy=0;exitX=0;exitY=0.5;exitDx=0;exitDy=0;" parent="1" source="8zIh_uZjIX3sih27jP3o-33" target="8zIh_uZjIX3sih27jP3o-40" edge="1">
          <mxGeometry width="50" height="50" relative="1" as="geometry">
            <mxPoint x="3000" y="490" as="sourcePoint" />
            <mxPoint x="3050" y="440" as="targetPoint" />
          </mxGeometry>
        </mxCell>
        <mxCell id="8zIh_uZjIX3sih27jP3o-45" value="" style="endArrow=none;html=1;rounded=0;exitX=1;exitY=0.5;exitDx=0;exitDy=0;entryX=0;entryY=1;entryDx=0;entryDy=0;" parent="1" source="8zIh_uZjIX3sih27jP3o-39" target="8zIh_uZjIX3sih27jP3o-33" edge="1">
          <mxGeometry width="50" height="50" relative="1" as="geometry">
            <mxPoint x="3010" y="500" as="sourcePoint" />
            <mxPoint x="3060" y="450" as="targetPoint" />
          </mxGeometry>
        </mxCell>
        <mxCell id="8zIh_uZjIX3sih27jP3o-46" value="" style="endArrow=none;html=1;rounded=0;exitX=1;exitY=0;exitDx=0;exitDy=0;entryX=0.25;entryY=1;entryDx=0;entryDy=0;" parent="1" source="8zIh_uZjIX3sih27jP3o-38" target="8zIh_uZjIX3sih27jP3o-33" edge="1">
          <mxGeometry width="50" height="50" relative="1" as="geometry">
            <mxPoint x="3020" y="510" as="sourcePoint" />
            <mxPoint x="3070" y="460" as="targetPoint" />
          </mxGeometry>
        </mxCell>
        <mxCell id="8zIh_uZjIX3sih27jP3o-47" value="" style="endArrow=none;html=1;rounded=0;exitX=0.5;exitY=1;exitDx=0;exitDy=0;entryX=0.25;entryY=0;entryDx=0;entryDy=0;" parent="1" source="8zIh_uZjIX3sih27jP3o-37" target="8zIh_uZjIX3sih27jP3o-33" edge="1">
          <mxGeometry width="50" height="50" relative="1" as="geometry">
            <mxPoint x="3030" y="520" as="sourcePoint" />
            <mxPoint x="3080" y="470" as="targetPoint" />
          </mxGeometry>
        </mxCell>
        <mxCell id="8zIh_uZjIX3sih27jP3o-48" value="" style="endArrow=none;html=1;rounded=0;exitX=0.75;exitY=1;exitDx=0;exitDy=0;entryX=0.25;entryY=0;entryDx=0;entryDy=0;exitPerimeter=0;" parent="1" source="8zIh_uZjIX3sih27jP3o-42" target="8zIh_uZjIX3sih27jP3o-33" edge="1">
          <mxGeometry width="50" height="50" relative="1" as="geometry">
            <mxPoint x="3040" y="530" as="sourcePoint" />
            <mxPoint x="3090" y="480" as="targetPoint" />
          </mxGeometry>
        </mxCell>
        <mxCell id="8zIh_uZjIX3sih27jP3o-49" value="" style="endArrow=none;html=1;rounded=0;exitX=0.5;exitY=1;exitDx=0;exitDy=0;entryX=0.5;entryY=0;entryDx=0;entryDy=0;" parent="1" source="8zIh_uZjIX3sih27jP3o-53" target="8zIh_uZjIX3sih27jP3o-50" edge="1">
          <mxGeometry width="50" height="50" relative="1" as="geometry">
            <mxPoint x="3350" y="430" as="sourcePoint" />
            <mxPoint x="3400" y="380" as="targetPoint" />
          </mxGeometry>
        </mxCell>
        <mxCell id="8zIh_uZjIX3sih27jP3o-50" value="Brand&lt;br&gt;(Thương hiệu)" style="rounded=0;whiteSpace=wrap;html=1;" parent="1" vertex="1">
          <mxGeometry x="3150" y="432.5" width="100" height="40" as="geometry" />
        </mxCell>
        <mxCell id="8zIh_uZjIX3sih27jP3o-51" value="&lt;u&gt;brand_id&lt;/u&gt;" style="ellipse;whiteSpace=wrap;html=1;" parent="1" vertex="1">
          <mxGeometry x="3140" y="390" width="90" height="30" as="geometry" />
        </mxCell>
        <mxCell id="8zIh_uZjIX3sih27jP3o-52" value="" style="endArrow=none;html=1;rounded=0;exitX=0.5;exitY=1;exitDx=0;exitDy=0;entryX=0.25;entryY=0;entryDx=0;entryDy=0;" parent="1" source="8zIh_uZjIX3sih27jP3o-51" target="8zIh_uZjIX3sih27jP3o-50" edge="1">
          <mxGeometry width="50" height="50" relative="1" as="geometry">
            <mxPoint x="3360" y="440" as="sourcePoint" />
            <mxPoint x="3410" y="390" as="targetPoint" />
          </mxGeometry>
        </mxCell>
        <mxCell id="8zIh_uZjIX3sih27jP3o-53" value="brand_name" style="ellipse;whiteSpace=wrap;html=1;" parent="1" vertex="1">
          <mxGeometry x="3240" y="390" width="80" height="30" as="geometry" />
        </mxCell>
        <mxCell id="8zIh_uZjIX3sih27jP3o-54" value="Promotion&lt;br&gt;(Khuyến mãi)" style="rounded=0;whiteSpace=wrap;html=1;" parent="1" vertex="1">
          <mxGeometry x="2857.5" y="874" width="115" height="40" as="geometry" />
        </mxCell>
        <mxCell id="8zIh_uZjIX3sih27jP3o-55" value="&lt;u&gt;promotion_id&lt;/u&gt;" style="ellipse;whiteSpace=wrap;html=1;" parent="1" vertex="1">
          <mxGeometry x="3042.5" y="886" width="85" height="30" as="geometry" />
        </mxCell>
        <mxCell id="8zIh_uZjIX3sih27jP3o-56" value="promotion_name" style="ellipse;whiteSpace=wrap;html=1;" parent="1" vertex="1">
          <mxGeometry x="2990" y="927" width="105" height="30" as="geometry" />
        </mxCell>
        <mxCell id="8zIh_uZjIX3sih27jP3o-57" value="start_date" style="ellipse;whiteSpace=wrap;html=1;" parent="1" vertex="1">
          <mxGeometry x="2805" y="934" width="70" height="30" as="geometry" />
        </mxCell>
        <mxCell id="8zIh_uZjIX3sih27jP3o-58" value="end_date" style="ellipse;whiteSpace=wrap;html=1;" parent="1" vertex="1">
          <mxGeometry x="2875" y="960" width="70" height="20" as="geometry" />
        </mxCell>
        <mxCell id="8zIh_uZjIX3sih27jP3o-59" value="discount" style="ellipse;whiteSpace=wrap;html=1;" parent="1" vertex="1">
          <mxGeometry x="2947.5" y="970" width="95" height="20" as="geometry" />
        </mxCell>
        <mxCell id="8zIh_uZjIX3sih27jP3o-60" value="" style="endArrow=none;html=1;rounded=0;entryX=0.5;entryY=0;entryDx=0;entryDy=0;exitX=1;exitY=0.5;exitDx=0;exitDy=0;" parent="1" source="8zIh_uZjIX3sih27jP3o-54" target="8zIh_uZjIX3sih27jP3o-56" edge="1">
          <mxGeometry width="50" height="50" relative="1" as="geometry">
            <mxPoint x="3087" y="944" as="sourcePoint" />
            <mxPoint x="3137" y="894" as="targetPoint" />
          </mxGeometry>
        </mxCell>
        <mxCell id="8zIh_uZjIX3sih27jP3o-61" value="" style="endArrow=none;html=1;rounded=0;exitX=0;exitY=0.5;exitDx=0;exitDy=0;entryX=1;entryY=0.25;entryDx=0;entryDy=0;" parent="1" source="8zIh_uZjIX3sih27jP3o-55" target="8zIh_uZjIX3sih27jP3o-54" edge="1">
          <mxGeometry width="50" height="50" relative="1" as="geometry">
            <mxPoint x="3057" y="1024" as="sourcePoint" />
            <mxPoint x="3107" y="974" as="targetPoint" />
          </mxGeometry>
        </mxCell>
        <mxCell id="8zIh_uZjIX3sih27jP3o-62" value="" style="endArrow=none;html=1;rounded=0;exitX=1;exitY=0.5;exitDx=0;exitDy=0;entryX=0.25;entryY=1;entryDx=0;entryDy=0;" parent="1" source="8zIh_uZjIX3sih27jP3o-57" target="8zIh_uZjIX3sih27jP3o-54" edge="1">
          <mxGeometry width="50" height="50" relative="1" as="geometry">
            <mxPoint x="2974" y="890" as="sourcePoint" />
            <mxPoint x="3037" y="944" as="targetPoint" />
          </mxGeometry>
        </mxCell>
        <mxCell id="8zIh_uZjIX3sih27jP3o-63" value="" style="endArrow=none;html=1;rounded=0;exitX=1;exitY=0.5;exitDx=0;exitDy=0;entryX=0.5;entryY=1;entryDx=0;entryDy=0;" parent="1" source="8zIh_uZjIX3sih27jP3o-58" target="8zIh_uZjIX3sih27jP3o-54" edge="1">
          <mxGeometry width="50" height="50" relative="1" as="geometry">
            <mxPoint x="2984" y="900" as="sourcePoint" />
            <mxPoint x="3057" y="944" as="targetPoint" />
          </mxGeometry>
        </mxCell>
        <mxCell id="8zIh_uZjIX3sih27jP3o-64" value="" style="endArrow=none;html=1;rounded=0;exitX=0.5;exitY=0;exitDx=0;exitDy=0;" parent="1" source="8zIh_uZjIX3sih27jP3o-59" target="8zIh_uZjIX3sih27jP3o-54" edge="1">
          <mxGeometry width="50" height="50" relative="1" as="geometry">
            <mxPoint x="2994" y="910" as="sourcePoint" />
            <mxPoint x="3041" y="934" as="targetPoint" />
          </mxGeometry>
        </mxCell>
        <mxCell id="8zIh_uZjIX3sih27jP3o-65" value="Bill&lt;br&gt;(Hóa đơn)" style="rounded=0;whiteSpace=wrap;html=1;" parent="1" vertex="1">
          <mxGeometry x="2435" y="635" width="110" height="40" as="geometry" />
        </mxCell>
        <mxCell id="8zIh_uZjIX3sih27jP3o-66" value="total_amount" style="ellipse;whiteSpace=wrap;html=1;" parent="1" vertex="1">
          <mxGeometry x="2370" y="760" width="90" height="30" as="geometry" />
        </mxCell>
        <mxCell id="8zIh_uZjIX3sih27jP3o-67" value="bill_date" style="ellipse;whiteSpace=wrap;html=1;" parent="1" vertex="1">
          <mxGeometry x="2460" y="750" width="90" height="30" as="geometry" />
        </mxCell>
        <mxCell id="8zIh_uZjIX3sih27jP3o-69" value="customer_id" style="ellipse;whiteSpace=wrap;html=1;" parent="1" vertex="1">
          <mxGeometry x="2280" y="700" width="80" height="30" as="geometry" />
        </mxCell>
        <mxCell id="8zIh_uZjIX3sih27jP3o-70" value="&lt;u&gt;bill_id&lt;/u&gt;" style="ellipse;whiteSpace=wrap;html=1;" parent="1" vertex="1">
          <mxGeometry x="2310" y="740" width="80" height="30" as="geometry" />
        </mxCell>
        <mxCell id="8zIh_uZjIX3sih27jP3o-71" value="" style="endArrow=none;html=1;rounded=0;entryX=0.632;entryY=0.027;entryDx=0;entryDy=0;exitX=0.5;exitY=1;exitDx=0;exitDy=0;entryPerimeter=0;" parent="1" source="8zIh_uZjIX3sih27jP3o-65" target="8zIh_uZjIX3sih27jP3o-70" edge="1">
          <mxGeometry width="50" height="50" relative="1" as="geometry">
            <mxPoint x="2020" y="580" as="sourcePoint" />
            <mxPoint x="2070" y="530" as="targetPoint" />
          </mxGeometry>
        </mxCell>
        <mxCell id="8zIh_uZjIX3sih27jP3o-72" value="" style="endArrow=none;html=1;rounded=0;entryX=1;entryY=0;entryDx=0;entryDy=0;exitX=0.25;exitY=1;exitDx=0;exitDy=0;" parent="1" source="8zIh_uZjIX3sih27jP3o-65" target="8zIh_uZjIX3sih27jP3o-69" edge="1">
          <mxGeometry width="50" height="50" relative="1" as="geometry">
            <mxPoint x="2030" y="590" as="sourcePoint" />
            <mxPoint x="2080" y="540" as="targetPoint" />
          </mxGeometry>
        </mxCell>
        <mxCell id="8zIh_uZjIX3sih27jP3o-74" value="" style="endArrow=none;html=1;rounded=0;entryX=0.422;entryY=1.013;entryDx=0;entryDy=0;entryPerimeter=0;exitX=0.75;exitY=0;exitDx=0;exitDy=0;" parent="1" source="8zIh_uZjIX3sih27jP3o-77" target="8zIh_uZjIX3sih27jP3o-83" edge="1">
          <mxGeometry width="50" height="50" relative="1" as="geometry">
            <mxPoint x="2920" y="800" as="sourcePoint" />
            <mxPoint x="2970" y="750" as="targetPoint" />
          </mxGeometry>
        </mxCell>
        <mxCell id="8zIh_uZjIX3sih27jP3o-75" value="" style="endArrow=none;html=1;rounded=0;entryX=0.5;entryY=0;entryDx=0;entryDy=0;exitX=0.75;exitY=1;exitDx=0;exitDy=0;" parent="1" source="8zIh_uZjIX3sih27jP3o-65" target="8zIh_uZjIX3sih27jP3o-66" edge="1">
          <mxGeometry width="50" height="50" relative="1" as="geometry">
            <mxPoint x="2060" y="620" as="sourcePoint" />
            <mxPoint x="2110" y="570" as="targetPoint" />
          </mxGeometry>
        </mxCell>
        <mxCell id="8zIh_uZjIX3sih27jP3o-76" value="" style="endArrow=none;html=1;rounded=0;entryX=0.5;entryY=0;entryDx=0;entryDy=0;exitX=0.75;exitY=1;exitDx=0;exitDy=0;" parent="1" source="8zIh_uZjIX3sih27jP3o-65" target="8zIh_uZjIX3sih27jP3o-67" edge="1">
          <mxGeometry width="50" height="50" relative="1" as="geometry">
            <mxPoint x="2070" y="630" as="sourcePoint" />
            <mxPoint x="2120" y="580" as="targetPoint" />
          </mxGeometry>
        </mxCell>
        <mxCell id="8zIh_uZjIX3sih27jP3o-77" value="BillDetail&lt;br&gt;(Chi tiết hóa đơn)" style="rounded=0;whiteSpace=wrap;html=1;" parent="1" vertex="1">
          <mxGeometry x="2855" y="635" width="120" height="40" as="geometry" />
        </mxCell>
        <mxCell id="8zIh_uZjIX3sih27jP3o-78" value="bill_id" style="ellipse;whiteSpace=wrap;html=1;" parent="1" vertex="1">
          <mxGeometry x="2725" y="663" width="80" height="20" as="geometry" />
        </mxCell>
        <mxCell id="8zIh_uZjIX3sih27jP3o-79" value="&lt;u&gt;bill_detail_id&lt;/u&gt;" style="ellipse;whiteSpace=wrap;html=1;" parent="1" vertex="1">
          <mxGeometry x="2782.5" y="590" width="95" height="30" as="geometry" />
        </mxCell>
        <mxCell id="8zIh_uZjIX3sih27jP3o-80" value="product_id" style="ellipse;whiteSpace=wrap;html=1;" parent="1" vertex="1">
          <mxGeometry x="2690" y="683" width="100" height="30" as="geometry" />
        </mxCell>
        <mxCell id="8zIh_uZjIX3sih27jP3o-81" value="quantity" style="ellipse;whiteSpace=wrap;html=1;" parent="1" vertex="1">
          <mxGeometry x="2722.5" y="720" width="60" height="30" as="geometry" />
        </mxCell>
        <mxCell id="8zIh_uZjIX3sih27jP3o-82" value="unit_price" style="ellipse;whiteSpace=wrap;html=1;" parent="1" vertex="1">
          <mxGeometry x="2933" y="740" width="90" height="30" as="geometry" />
        </mxCell>
        <mxCell id="8zIh_uZjIX3sih27jP3o-83" value="total_price" style="ellipse;whiteSpace=wrap;html=1;" parent="1" vertex="1">
          <mxGeometry x="2956" y="695" width="90" height="30" as="geometry" />
        </mxCell>
        <mxCell id="8zIh_uZjIX3sih27jP3o-84" value="promotion_id" style="ellipse;whiteSpace=wrap;html=1;" parent="1" vertex="1">
          <mxGeometry x="2775" y="730" width="90" height="30" as="geometry" />
        </mxCell>
        <mxCell id="8zIh_uZjIX3sih27jP3o-85" value="" style="endArrow=none;html=1;rounded=0;entryX=0.5;entryY=1;entryDx=0;entryDy=0;exitX=0.5;exitY=0;exitDx=0;exitDy=0;" parent="1" source="8zIh_uZjIX3sih27jP3o-82" target="8zIh_uZjIX3sih27jP3o-77" edge="1">
          <mxGeometry width="50" height="50" relative="1" as="geometry">
            <mxPoint x="2812" y="939.0000000000002" as="sourcePoint" />
            <mxPoint x="2857" y="994.0000000000002" as="targetPoint" />
          </mxGeometry>
        </mxCell>
        <mxCell id="8zIh_uZjIX3sih27jP3o-86" value="" style="endArrow=none;html=1;rounded=0;exitX=0.25;exitY=0;exitDx=0;exitDy=0;entryX=1;entryY=1;entryDx=0;entryDy=0;" parent="1" source="8zIh_uZjIX3sih27jP3o-77" target="8zIh_uZjIX3sih27jP3o-79" edge="1">
          <mxGeometry width="50" height="50" relative="1" as="geometry">
            <mxPoint x="2940" y="820" as="sourcePoint" />
            <mxPoint x="2837" y="653" as="targetPoint" />
          </mxGeometry>
        </mxCell>
        <mxCell id="8zIh_uZjIX3sih27jP3o-87" value="" style="endArrow=none;html=1;rounded=0;entryX=1;entryY=0.5;entryDx=0;entryDy=0;exitX=0;exitY=1;exitDx=0;exitDy=0;" parent="1" source="8zIh_uZjIX3sih27jP3o-77" target="8zIh_uZjIX3sih27jP3o-78" edge="1">
          <mxGeometry width="50" height="50" relative="1" as="geometry">
            <mxPoint x="2950" y="830" as="sourcePoint" />
            <mxPoint x="3000" y="780" as="targetPoint" />
          </mxGeometry>
        </mxCell>
        <mxCell id="8zIh_uZjIX3sih27jP3o-88" value="" style="endArrow=none;html=1;rounded=0;entryX=1;entryY=0.5;entryDx=0;entryDy=0;exitX=0.107;exitY=0.98;exitDx=0;exitDy=0;exitPerimeter=0;" parent="1" source="8zIh_uZjIX3sih27jP3o-77" target="8zIh_uZjIX3sih27jP3o-80" edge="1">
          <mxGeometry width="50" height="50" relative="1" as="geometry">
            <mxPoint x="2960" y="840" as="sourcePoint" />
            <mxPoint x="3010" y="790" as="targetPoint" />
          </mxGeometry>
        </mxCell>
        <mxCell id="8zIh_uZjIX3sih27jP3o-89" value="" style="endArrow=none;html=1;rounded=0;exitX=1;exitY=0;exitDx=0;exitDy=0;entryX=0.34;entryY=1.06;entryDx=0;entryDy=0;entryPerimeter=0;" parent="1" source="8zIh_uZjIX3sih27jP3o-81" target="8zIh_uZjIX3sih27jP3o-77" edge="1">
          <mxGeometry width="50" height="50" relative="1" as="geometry">
            <mxPoint x="2970" y="850" as="sourcePoint" />
            <mxPoint x="3020" y="800" as="targetPoint" />
          </mxGeometry>
        </mxCell>
        <mxCell id="8zIh_uZjIX3sih27jP3o-90" value="" style="endArrow=none;html=1;rounded=0;exitX=0.5;exitY=0;exitDx=0;exitDy=0;entryX=0.5;entryY=1;entryDx=0;entryDy=0;" parent="1" source="8zIh_uZjIX3sih27jP3o-84" target="8zIh_uZjIX3sih27jP3o-77" edge="1">
          <mxGeometry width="50" height="50" relative="1" as="geometry">
            <mxPoint x="2980" y="860" as="sourcePoint" />
            <mxPoint x="3030" y="810" as="targetPoint" />
          </mxGeometry>
        </mxCell>
        <mxCell id="8zIh_uZjIX3sih27jP3o-91" value="" style="endArrow=none;html=1;rounded=0;entryX=0.5;entryY=1;entryDx=0;entryDy=0;exitX=0.25;exitY=0;exitDx=0;exitDy=0;" parent="1" source="8zIh_uZjIX3sih27jP3o-92" target="8zIh_uZjIX3sih27jP3o-94" edge="1">
          <mxGeometry width="50" height="50" relative="1" as="geometry">
            <mxPoint x="2200" y="780" as="sourcePoint" />
            <mxPoint x="2420" y="460" as="targetPoint" />
          </mxGeometry>
        </mxCell>
        <mxCell id="8zIh_uZjIX3sih27jP3o-92" value="Customer&lt;br&gt;(Khách hàng)" style="rounded=0;whiteSpace=wrap;html=1;" parent="1" vertex="1">
          <mxGeometry x="2430" y="500" width="120" height="30" as="geometry" />
        </mxCell>
        <mxCell id="8zIh_uZjIX3sih27jP3o-94" value="customer_phone" style="ellipse;whiteSpace=wrap;html=1;" parent="1" vertex="1">
          <mxGeometry x="2297.5" y="510" width="105" height="30" as="geometry" />
        </mxCell>
        <mxCell id="8zIh_uZjIX3sih27jP3o-95" value="customer_address" style="ellipse;whiteSpace=wrap;html=1;" parent="1" vertex="1">
          <mxGeometry x="2297.5" y="460" width="105" height="30" as="geometry" />
        </mxCell>
        <mxCell id="8zIh_uZjIX3sih27jP3o-96" value="customer_name" style="ellipse;whiteSpace=wrap;html=1;" parent="1" vertex="1">
          <mxGeometry x="2512.5" y="442.5" width="95" height="30" as="geometry" />
        </mxCell>
        <mxCell id="8zIh_uZjIX3sih27jP3o-97" value="&lt;u&gt;customer_id&lt;/u&gt;" style="ellipse;whiteSpace=wrap;html=1;" parent="1" vertex="1">
          <mxGeometry x="2400" y="445" width="85" height="30" as="geometry" />
        </mxCell>
        <mxCell id="8zIh_uZjIX3sih27jP3o-98" value="" style="endArrow=none;html=1;rounded=0;entryX=0.343;entryY=0.987;entryDx=0;entryDy=0;entryPerimeter=0;exitX=0;exitY=0.25;exitDx=0;exitDy=0;" parent="1" source="8zIh_uZjIX3sih27jP3o-92" target="8zIh_uZjIX3sih27jP3o-95" edge="1">
          <mxGeometry width="50" height="50" relative="1" as="geometry">
            <mxPoint x="2210" y="790" as="sourcePoint" />
            <mxPoint x="2260" y="740" as="targetPoint" />
          </mxGeometry>
        </mxCell>
        <mxCell id="8zIh_uZjIX3sih27jP3o-99" value="" style="endArrow=none;html=1;rounded=0;entryX=1;entryY=1;entryDx=0;entryDy=0;exitX=0.5;exitY=0;exitDx=0;exitDy=0;" parent="1" source="8zIh_uZjIX3sih27jP3o-92" target="8zIh_uZjIX3sih27jP3o-97" edge="1">
          <mxGeometry width="50" height="50" relative="1" as="geometry">
            <mxPoint x="2220" y="800" as="sourcePoint" />
            <mxPoint x="2270" y="750" as="targetPoint" />
          </mxGeometry>
        </mxCell>
        <mxCell id="8zIh_uZjIX3sih27jP3o-100" value="" style="endArrow=none;html=1;rounded=0;entryX=0;entryY=0.5;entryDx=0;entryDy=0;exitX=0.615;exitY=-0.009;exitDx=0;exitDy=0;exitPerimeter=0;" parent="1" source="8zIh_uZjIX3sih27jP3o-92" target="8zIh_uZjIX3sih27jP3o-96" edge="1">
          <mxGeometry width="50" height="50" relative="1" as="geometry">
            <mxPoint x="2230" y="810" as="sourcePoint" />
            <mxPoint x="2280" y="760" as="targetPoint" />
          </mxGeometry>
        </mxCell>
        <mxCell id="8zIh_uZjIX3sih27jP3o-101" value="DeliveryNote&lt;br&gt;(Phiếu giao hàng)" style="rounded=0;whiteSpace=wrap;html=1;" parent="1" vertex="1">
          <mxGeometry x="3280" y="70" width="110" height="40" as="geometry" />
        </mxCell>
        <mxCell id="8zIh_uZjIX3sih27jP3o-102" value="&lt;u&gt;delevery_id&lt;/u&gt;" style="ellipse;whiteSpace=wrap;html=1;" parent="1" vertex="1">
          <mxGeometry x="3280" y="10" width="95" height="30" as="geometry" />
        </mxCell>
        <mxCell id="8zIh_uZjIX3sih27jP3o-103" value="order_id" style="ellipse;whiteSpace=wrap;html=1;" parent="1" vertex="1">
          <mxGeometry x="3382.5" width="95" height="25" as="geometry" />
        </mxCell>
        <mxCell id="8zIh_uZjIX3sih27jP3o-104" value="supplier_id" style="ellipse;whiteSpace=wrap;html=1;" parent="1" vertex="1">
          <mxGeometry x="3192.5" y="30" width="80" height="20" as="geometry" />
        </mxCell>
        <mxCell id="8zIh_uZjIX3sih27jP3o-105" value="delevery_date" style="ellipse;whiteSpace=wrap;html=1;" parent="1" vertex="1">
          <mxGeometry x="3410" y="110" width="90" height="30" as="geometry" />
        </mxCell>
        <mxCell id="8zIh_uZjIX3sih27jP3o-107" value="status" style="ellipse;whiteSpace=wrap;html=1;" parent="1" vertex="1">
          <mxGeometry x="3430" y="75" width="95" height="20" as="geometry" />
        </mxCell>
        <mxCell id="8zIh_uZjIX3sih27jP3o-108" value="" style="endArrow=none;html=1;rounded=0;entryX=0.5;entryY=1;entryDx=0;entryDy=0;exitX=0.5;exitY=0;exitDx=0;exitDy=0;" parent="1" source="8zIh_uZjIX3sih27jP3o-101" target="8zIh_uZjIX3sih27jP3o-102" edge="1">
          <mxGeometry width="50" height="50" relative="1" as="geometry">
            <mxPoint x="3477.5" y="90" as="sourcePoint" />
            <mxPoint x="3527.5" y="40" as="targetPoint" />
          </mxGeometry>
        </mxCell>
        <mxCell id="8zIh_uZjIX3sih27jP3o-109" value="" style="endArrow=none;html=1;rounded=0;entryX=0;entryY=0.5;entryDx=0;entryDy=0;exitX=0.75;exitY=0;exitDx=0;exitDy=0;" parent="1" source="8zIh_uZjIX3sih27jP3o-101" target="8zIh_uZjIX3sih27jP3o-103" edge="1">
          <mxGeometry width="50" height="50" relative="1" as="geometry">
            <mxPoint x="3487.5" y="100" as="sourcePoint" />
            <mxPoint x="3537.5" y="50" as="targetPoint" />
          </mxGeometry>
        </mxCell>
        <mxCell id="8zIh_uZjIX3sih27jP3o-110" value="" style="endArrow=none;html=1;rounded=0;exitX=1;exitY=0.5;exitDx=0;exitDy=0;entryX=0;entryY=0;entryDx=0;entryDy=0;" parent="1" source="8zIh_uZjIX3sih27jP3o-104" target="8zIh_uZjIX3sih27jP3o-101" edge="1">
          <mxGeometry width="50" height="50" relative="1" as="geometry">
            <mxPoint x="3497.5" y="110" as="sourcePoint" />
            <mxPoint x="3547.5" y="60" as="targetPoint" />
          </mxGeometry>
        </mxCell>
        <mxCell id="8zIh_uZjIX3sih27jP3o-111" value="" style="endArrow=none;html=1;rounded=0;exitX=0;exitY=0.5;exitDx=0;exitDy=0;entryX=1;entryY=1;entryDx=0;entryDy=0;" parent="1" source="8zIh_uZjIX3sih27jP3o-105" target="8zIh_uZjIX3sih27jP3o-101" edge="1">
          <mxGeometry width="50" height="50" relative="1" as="geometry">
            <mxPoint x="3507.5" y="120" as="sourcePoint" />
            <mxPoint x="3557.5" y="70" as="targetPoint" />
          </mxGeometry>
        </mxCell>
        <mxCell id="8zIh_uZjIX3sih27jP3o-112" value="" style="endArrow=none;html=1;rounded=0;exitX=0.5;exitY=0;exitDx=0;exitDy=0;entryX=1;entryY=0.25;entryDx=0;entryDy=0;" parent="1" source="8zIh_uZjIX3sih27jP3o-107" target="8zIh_uZjIX3sih27jP3o-101" edge="1">
          <mxGeometry width="50" height="50" relative="1" as="geometry">
            <mxPoint x="3517.5" y="130" as="sourcePoint" />
            <mxPoint x="3567.5" y="80" as="targetPoint" />
          </mxGeometry>
        </mxCell>
        <mxCell id="8zIh_uZjIX3sih27jP3o-113" value="" style="endArrow=none;html=1;rounded=0;exitX=0;exitY=0.5;exitDx=0;exitDy=0;" parent="1" source="8zIh_uZjIX3sih27jP3o-35" target="8zIh_uZjIX3sih27jP3o-1" edge="1">
          <mxGeometry width="50" height="50" relative="1" as="geometry">
            <mxPoint x="2680" y="310" as="sourcePoint" />
            <mxPoint x="2730" y="260" as="targetPoint" />
          </mxGeometry>
        </mxCell>
        <mxCell id="8zIh_uZjIX3sih27jP3o-115" value="Cung cấp" style="rhombus;whiteSpace=wrap;html=1;" parent="1" vertex="1">
          <mxGeometry x="2720" y="70" width="80" height="40" as="geometry" />
        </mxCell>
        <mxCell id="8zIh_uZjIX3sih27jP3o-116" value="" style="endArrow=none;html=1;rounded=0;exitX=1;exitY=0.5;exitDx=0;exitDy=0;entryX=0;entryY=0.5;entryDx=0;entryDy=0;" parent="1" source="8zIh_uZjIX3sih27jP3o-1" target="8zIh_uZjIX3sih27jP3o-115" edge="1">
          <mxGeometry width="50" height="50" relative="1" as="geometry">
            <mxPoint x="2640" y="220" as="sourcePoint" />
            <mxPoint x="2690" y="170" as="targetPoint" />
          </mxGeometry>
        </mxCell>
        <mxCell id="8zIh_uZjIX3sih27jP3o-127" value="(1,n)" style="edgeLabel;html=1;align=center;verticalAlign=middle;resizable=0;points=[];" parent="8zIh_uZjIX3sih27jP3o-116" vertex="1" connectable="0">
          <mxGeometry x="-0.0048" y="-2" relative="1" as="geometry">
            <mxPoint y="-12" as="offset" />
          </mxGeometry>
        </mxCell>
        <mxCell id="8zIh_uZjIX3sih27jP3o-117" value="" style="endArrow=none;html=1;rounded=0;exitX=1;exitY=0.5;exitDx=0;exitDy=0;entryX=0;entryY=0.5;entryDx=0;entryDy=0;" parent="1" source="8zIh_uZjIX3sih27jP3o-115" target="8zIh_uZjIX3sih27jP3o-13" edge="1">
          <mxGeometry width="50" height="50" relative="1" as="geometry">
            <mxPoint x="2790" y="160" as="sourcePoint" />
            <mxPoint x="2840" y="110" as="targetPoint" />
          </mxGeometry>
        </mxCell>
        <mxCell id="8zIh_uZjIX3sih27jP3o-128" value="(1,1)" style="edgeLabel;html=1;align=center;verticalAlign=middle;resizable=0;points=[];" parent="8zIh_uZjIX3sih27jP3o-117" vertex="1" connectable="0">
          <mxGeometry x="-0.2667" relative="1" as="geometry">
            <mxPoint y="-10" as="offset" />
          </mxGeometry>
        </mxCell>
        <mxCell id="8zIh_uZjIX3sih27jP3o-129" value="" style="endArrow=none;html=1;rounded=0;entryX=0.5;entryY=1;entryDx=0;entryDy=0;exitX=0.5;exitY=0;exitDx=0;exitDy=0;" parent="1" source="8zIh_uZjIX3sih27jP3o-131" target="8zIh_uZjIX3sih27jP3o-13" edge="1">
          <mxGeometry width="50" height="50" relative="1" as="geometry">
            <mxPoint x="2915" y="160" as="sourcePoint" />
            <mxPoint x="2890" y="120" as="targetPoint" />
          </mxGeometry>
        </mxCell>
        <mxCell id="8zIh_uZjIX3sih27jP3o-144" value="(1,n)" style="edgeLabel;html=1;align=center;verticalAlign=middle;resizable=0;points=[];" parent="8zIh_uZjIX3sih27jP3o-129" vertex="1" connectable="0">
          <mxGeometry x="0.1474" y="-3" relative="1" as="geometry">
            <mxPoint as="offset" />
          </mxGeometry>
        </mxCell>
        <mxCell id="8zIh_uZjIX3sih27jP3o-131" value="Thuộc" style="rhombus;whiteSpace=wrap;html=1;" parent="1" vertex="1">
          <mxGeometry x="2877.5" y="160" width="75" height="40" as="geometry" />
        </mxCell>
        <mxCell id="8zIh_uZjIX3sih27jP3o-143" value="" style="endArrow=none;html=1;rounded=0;entryX=0.5;entryY=1;entryDx=0;entryDy=0;exitX=0.5;exitY=0;exitDx=0;exitDy=0;" parent="1" source="8zIh_uZjIX3sih27jP3o-23" target="8zIh_uZjIX3sih27jP3o-131" edge="1">
          <mxGeometry width="50" height="50" relative="1" as="geometry">
            <mxPoint x="2640" y="440" as="sourcePoint" />
            <mxPoint x="2690" y="390" as="targetPoint" />
          </mxGeometry>
        </mxCell>
        <mxCell id="8zIh_uZjIX3sih27jP3o-145" value="(1,1)" style="edgeLabel;html=1;align=center;verticalAlign=middle;resizable=0;points=[];" parent="8zIh_uZjIX3sih27jP3o-143" vertex="1" connectable="0">
          <mxGeometry x="0.0263" y="-2" relative="1" as="geometry">
            <mxPoint as="offset" />
          </mxGeometry>
        </mxCell>
        <mxCell id="8zIh_uZjIX3sih27jP3o-147" value="" style="endArrow=none;html=1;rounded=0;exitX=1;exitY=0.5;exitDx=0;exitDy=0;" parent="1" source="8zIh_uZjIX3sih27jP3o-13" edge="1">
          <mxGeometry width="50" height="50" relative="1" as="geometry">
            <mxPoint x="3130" y="150" as="sourcePoint" />
            <mxPoint x="3080" y="90" as="targetPoint" />
          </mxGeometry>
        </mxCell>
        <mxCell id="8zIh_uZjIX3sih27jP3o-153" value="(1,n)" style="edgeLabel;html=1;align=center;verticalAlign=middle;resizable=0;points=[];" parent="8zIh_uZjIX3sih27jP3o-147" vertex="1" connectable="0">
          <mxGeometry x="0.1129" y="1" relative="1" as="geometry">
            <mxPoint as="offset" />
          </mxGeometry>
        </mxCell>
        <mxCell id="8zIh_uZjIX3sih27jP3o-148" value="Có" style="rhombus;whiteSpace=wrap;html=1;" parent="1" vertex="1">
          <mxGeometry x="3080" y="70" width="80" height="40" as="geometry" />
        </mxCell>
        <mxCell id="8zIh_uZjIX3sih27jP3o-150" value="" style="endArrow=none;html=1;rounded=0;exitX=1;exitY=0.5;exitDx=0;exitDy=0;entryX=0;entryY=0.5;entryDx=0;entryDy=0;" parent="1" source="8zIh_uZjIX3sih27jP3o-148" target="8zIh_uZjIX3sih27jP3o-101" edge="1">
          <mxGeometry width="50" height="50" relative="1" as="geometry">
            <mxPoint x="3190" y="180" as="sourcePoint" />
            <mxPoint x="3240" y="130" as="targetPoint" />
          </mxGeometry>
        </mxCell>
        <mxCell id="8zIh_uZjIX3sih27jP3o-154" value="(1,1)" style="edgeLabel;html=1;align=center;verticalAlign=middle;resizable=0;points=[];" parent="8zIh_uZjIX3sih27jP3o-150" vertex="1" connectable="0">
          <mxGeometry x="-0.164" y="-1" relative="1" as="geometry">
            <mxPoint y="-1" as="offset" />
          </mxGeometry>
        </mxCell>
        <mxCell id="8zIh_uZjIX3sih27jP3o-155" value="" style="endArrow=none;html=1;rounded=0;entryX=0.5;entryY=1;entryDx=0;entryDy=0;exitX=0.5;exitY=0;exitDx=0;exitDy=0;" parent="1" source="8zIh_uZjIX3sih27jP3o-156" target="8zIh_uZjIX3sih27jP3o-23" edge="1">
          <mxGeometry width="50" height="50" relative="1" as="geometry">
            <mxPoint x="2915" y="350" as="sourcePoint" />
            <mxPoint x="3000" y="470" as="targetPoint" />
          </mxGeometry>
        </mxCell>
        <mxCell id="8zIh_uZjIX3sih27jP3o-161" value="(1,1)" style="edgeLabel;html=1;align=center;verticalAlign=middle;resizable=0;points=[];" parent="8zIh_uZjIX3sih27jP3o-155" vertex="1" connectable="0">
          <mxGeometry x="0.1333" relative="1" as="geometry">
            <mxPoint as="offset" />
          </mxGeometry>
        </mxCell>
        <mxCell id="8zIh_uZjIX3sih27jP3o-156" value="Thuộc" style="rhombus;whiteSpace=wrap;html=1;" parent="1" vertex="1">
          <mxGeometry x="2882.5" y="340" width="65" height="40" as="geometry" />
        </mxCell>
        <mxCell id="8zIh_uZjIX3sih27jP3o-157" value="" style="endArrow=none;html=1;rounded=0;entryX=0.5;entryY=1;entryDx=0;entryDy=0;exitX=0.5;exitY=0;exitDx=0;exitDy=0;" parent="1" source="8zIh_uZjIX3sih27jP3o-33" target="8zIh_uZjIX3sih27jP3o-156" edge="1">
          <mxGeometry width="50" height="50" relative="1" as="geometry">
            <mxPoint x="2940" y="500" as="sourcePoint" />
            <mxPoint x="2990" y="450" as="targetPoint" />
          </mxGeometry>
        </mxCell>
        <mxCell id="8zIh_uZjIX3sih27jP3o-160" value="(1,n)" style="edgeLabel;html=1;align=center;verticalAlign=middle;resizable=0;points=[];" parent="8zIh_uZjIX3sih27jP3o-157" vertex="1" connectable="0">
          <mxGeometry x="0.1758" y="-1" relative="1" as="geometry">
            <mxPoint x="-1" y="-3" as="offset" />
          </mxGeometry>
        </mxCell>
        <mxCell id="8zIh_uZjIX3sih27jP3o-162" value="" style="endArrow=none;html=1;rounded=0;exitX=1;exitY=0.5;exitDx=0;exitDy=0;entryX=0;entryY=0.5;entryDx=0;entryDy=0;" parent="1" source="8zIh_uZjIX3sih27jP3o-33" target="8zIh_uZjIX3sih27jP3o-163" edge="1">
          <mxGeometry width="50" height="50" relative="1" as="geometry">
            <mxPoint x="2990" y="530" as="sourcePoint" />
            <mxPoint x="3010" y="453" as="targetPoint" />
          </mxGeometry>
        </mxCell>
        <mxCell id="8zIh_uZjIX3sih27jP3o-168" value="(1,1)" style="edgeLabel;html=1;align=center;verticalAlign=middle;resizable=0;points=[];" parent="8zIh_uZjIX3sih27jP3o-162" vertex="1" connectable="0">
          <mxGeometry x="-0.02" y="2" relative="1" as="geometry">
            <mxPoint as="offset" />
          </mxGeometry>
        </mxCell>
        <mxCell id="8zIh_uZjIX3sih27jP3o-163" value="Có" style="rhombus;whiteSpace=wrap;html=1;" parent="1" vertex="1">
          <mxGeometry x="3030" y="430" width="60" height="45" as="geometry" />
        </mxCell>
        <mxCell id="8zIh_uZjIX3sih27jP3o-164" value="" style="endArrow=none;html=1;rounded=0;exitX=1;exitY=0.5;exitDx=0;exitDy=0;entryX=0;entryY=0.5;entryDx=0;entryDy=0;" parent="1" source="8zIh_uZjIX3sih27jP3o-163" target="8zIh_uZjIX3sih27jP3o-50" edge="1">
          <mxGeometry width="50" height="50" relative="1" as="geometry">
            <mxPoint x="3100" y="500" as="sourcePoint" />
            <mxPoint x="3150" y="450" as="targetPoint" />
          </mxGeometry>
        </mxCell>
        <mxCell id="8zIh_uZjIX3sih27jP3o-166" value="(1,n)" style="edgeLabel;html=1;align=center;verticalAlign=middle;resizable=0;points=[];" parent="8zIh_uZjIX3sih27jP3o-164" vertex="1" connectable="0">
          <mxGeometry x="-0.2867" y="2" relative="1" as="geometry">
            <mxPoint as="offset" />
          </mxGeometry>
        </mxCell>
        <mxCell id="8zIh_uZjIX3sih27jP3o-169" value="" style="endArrow=none;html=1;rounded=0;exitX=0.5;exitY=0;exitDx=0;exitDy=0;entryX=0.25;entryY=1;entryDx=0;entryDy=0;" parent="1" source="8zIh_uZjIX3sih27jP3o-36" target="8zIh_uZjIX3sih27jP3o-33" edge="1">
          <mxGeometry width="50" height="50" relative="1" as="geometry">
            <mxPoint x="2836" y="534" as="sourcePoint" />
            <mxPoint x="2890" y="480" as="targetPoint" />
          </mxGeometry>
        </mxCell>
        <mxCell id="8zIh_uZjIX3sih27jP3o-172" value="" style="endArrow=none;html=1;rounded=0;entryX=0.5;entryY=1;entryDx=0;entryDy=0;exitX=0.5;exitY=0;exitDx=0;exitDy=0;" parent="1" source="8zIh_uZjIX3sih27jP3o-173" target="8zIh_uZjIX3sih27jP3o-33" edge="1">
          <mxGeometry width="50" height="50" relative="1" as="geometry">
            <mxPoint x="2915" y="560" as="sourcePoint" />
            <mxPoint x="2940" y="570" as="targetPoint" />
          </mxGeometry>
        </mxCell>
        <mxCell id="8zIh_uZjIX3sih27jP3o-177" value="(1,n)" style="edgeLabel;html=1;align=center;verticalAlign=middle;resizable=0;points=[];" parent="8zIh_uZjIX3sih27jP3o-172" vertex="1" connectable="0">
          <mxGeometry x="0.0971" y="-4" relative="1" as="geometry">
            <mxPoint as="offset" />
          </mxGeometry>
        </mxCell>
        <mxCell id="8zIh_uZjIX3sih27jP3o-173" value="Có" style="rhombus;whiteSpace=wrap;html=1;" parent="1" vertex="1">
          <mxGeometry x="2885" y="540" width="60" height="40" as="geometry" />
        </mxCell>
        <mxCell id="8zIh_uZjIX3sih27jP3o-175" value="" style="endArrow=none;html=1;rounded=0;entryX=0.5;entryY=1;entryDx=0;entryDy=0;exitX=0.5;exitY=0;exitDx=0;exitDy=0;" parent="1" source="8zIh_uZjIX3sih27jP3o-77" target="8zIh_uZjIX3sih27jP3o-173" edge="1">
          <mxGeometry width="50" height="50" relative="1" as="geometry">
            <mxPoint x="2915" y="640" as="sourcePoint" />
            <mxPoint x="2860" y="620" as="targetPoint" />
          </mxGeometry>
        </mxCell>
        <mxCell id="8zIh_uZjIX3sih27jP3o-178" value="(1,1)" style="edgeLabel;html=1;align=center;verticalAlign=middle;resizable=0;points=[];" parent="8zIh_uZjIX3sih27jP3o-175" vertex="1" connectable="0">
          <mxGeometry x="0.1661" y="-1" relative="1" as="geometry">
            <mxPoint as="offset" />
          </mxGeometry>
        </mxCell>
        <mxCell id="8zIh_uZjIX3sih27jP3o-180" style="edgeStyle=orthogonalEdgeStyle;rounded=0;orthogonalLoop=1;jettySize=auto;html=1;exitX=0.5;exitY=1;exitDx=0;exitDy=0;" parent="1" source="8zIh_uZjIX3sih27jP3o-84" target="8zIh_uZjIX3sih27jP3o-84" edge="1">
          <mxGeometry relative="1" as="geometry" />
        </mxCell>
        <mxCell id="8zIh_uZjIX3sih27jP3o-181" value="" style="endArrow=none;html=1;rounded=0;entryX=0;entryY=0.5;entryDx=0;entryDy=0;exitX=1;exitY=0.5;exitDx=0;exitDy=0;" parent="1" source="8zIh_uZjIX3sih27jP3o-182" target="8zIh_uZjIX3sih27jP3o-77" edge="1">
          <mxGeometry width="50" height="50" relative="1" as="geometry">
            <mxPoint x="2690" y="660" as="sourcePoint" />
            <mxPoint x="2620" y="660" as="targetPoint" />
          </mxGeometry>
        </mxCell>
        <mxCell id="8zIh_uZjIX3sih27jP3o-186" value="(1,1)" style="edgeLabel;html=1;align=center;verticalAlign=middle;resizable=0;points=[];" parent="8zIh_uZjIX3sih27jP3o-181" vertex="1" connectable="0">
          <mxGeometry x="-0.1918" y="3" relative="1" as="geometry">
            <mxPoint x="1" as="offset" />
          </mxGeometry>
        </mxCell>
        <mxCell id="8zIh_uZjIX3sih27jP3o-182" value="Có" style="rhombus;whiteSpace=wrap;html=1;" parent="1" vertex="1">
          <mxGeometry x="2660" y="630" width="65" height="50" as="geometry" />
        </mxCell>
        <mxCell id="8zIh_uZjIX3sih27jP3o-183" value="" style="endArrow=none;html=1;rounded=0;entryX=0;entryY=0.5;entryDx=0;entryDy=0;exitX=1;exitY=0.5;exitDx=0;exitDy=0;" parent="1" source="8zIh_uZjIX3sih27jP3o-65" target="8zIh_uZjIX3sih27jP3o-182" edge="1">
          <mxGeometry width="50" height="50" relative="1" as="geometry">
            <mxPoint x="2490" y="655" as="sourcePoint" />
            <mxPoint x="2460" y="660" as="targetPoint" />
          </mxGeometry>
        </mxCell>
        <mxCell id="8zIh_uZjIX3sih27jP3o-185" value="(1,n)" style="edgeLabel;html=1;align=center;verticalAlign=middle;resizable=0;points=[];" parent="8zIh_uZjIX3sih27jP3o-183" vertex="1" connectable="0">
          <mxGeometry x="0.0033" y="5" relative="1" as="geometry">
            <mxPoint as="offset" />
          </mxGeometry>
        </mxCell>
        <mxCell id="8zIh_uZjIX3sih27jP3o-187" value="" style="endArrow=none;html=1;rounded=0;entryX=0.5;entryY=1;entryDx=0;entryDy=0;exitX=0.5;exitY=0;exitDx=0;exitDy=0;" parent="1" source="8zIh_uZjIX3sih27jP3o-188" target="8zIh_uZjIX3sih27jP3o-92" edge="1">
          <mxGeometry width="50" height="50" relative="1" as="geometry">
            <mxPoint x="2490" y="570" as="sourcePoint" />
            <mxPoint x="2430" y="580" as="targetPoint" />
          </mxGeometry>
        </mxCell>
        <mxCell id="8zIh_uZjIX3sih27jP3o-192" value="(1,n)" style="edgeLabel;html=1;align=center;verticalAlign=middle;resizable=0;points=[];" parent="8zIh_uZjIX3sih27jP3o-187" vertex="1" connectable="0">
          <mxGeometry x="0.0489" y="2" relative="1" as="geometry">
            <mxPoint as="offset" />
          </mxGeometry>
        </mxCell>
        <mxCell id="8zIh_uZjIX3sih27jP3o-188" value="Có" style="rhombus;whiteSpace=wrap;html=1;" parent="1" vertex="1">
          <mxGeometry x="2460" y="560" width="60" height="40" as="geometry" />
        </mxCell>
        <mxCell id="8zIh_uZjIX3sih27jP3o-191" value="" style="endArrow=none;html=1;rounded=0;entryX=0.5;entryY=1;entryDx=0;entryDy=0;exitX=0.5;exitY=0;exitDx=0;exitDy=0;" parent="1" source="8zIh_uZjIX3sih27jP3o-65" target="8zIh_uZjIX3sih27jP3o-188" edge="1">
          <mxGeometry width="50" height="50" relative="1" as="geometry">
            <mxPoint x="2485" y="635" as="sourcePoint" />
            <mxPoint x="2430" y="590" as="targetPoint" />
          </mxGeometry>
        </mxCell>
        <mxCell id="8zIh_uZjIX3sih27jP3o-193" value="(1,1)" style="edgeLabel;html=1;align=center;verticalAlign=middle;resizable=0;points=[];" parent="8zIh_uZjIX3sih27jP3o-191" vertex="1" connectable="0">
          <mxGeometry x="0.299" y="-2" relative="1" as="geometry">
            <mxPoint as="offset" />
          </mxGeometry>
        </mxCell>
        <mxCell id="8zIh_uZjIX3sih27jP3o-194" value="" style="endArrow=none;html=1;rounded=0;exitX=0.5;exitY=1;exitDx=0;exitDy=0;entryX=0.5;entryY=0;entryDx=0;entryDy=0;" parent="1" source="8zIh_uZjIX3sih27jP3o-77" target="8zIh_uZjIX3sih27jP3o-195" edge="1">
          <mxGeometry width="50" height="50" relative="1" as="geometry">
            <mxPoint x="2812" y="919.0000000000002" as="sourcePoint" />
            <mxPoint x="2867" y="919" as="targetPoint" />
          </mxGeometry>
        </mxCell>
        <mxCell id="8zIh_uZjIX3sih27jP3o-199" value="(0,1)" style="edgeLabel;html=1;align=center;verticalAlign=middle;resizable=0;points=[];" parent="8zIh_uZjIX3sih27jP3o-194" vertex="1" connectable="0">
          <mxGeometry x="0.0036" relative="1" as="geometry">
            <mxPoint as="offset" />
          </mxGeometry>
        </mxCell>
        <mxCell id="8zIh_uZjIX3sih27jP3o-195" value="Có" style="rhombus;whiteSpace=wrap;html=1;" parent="1" vertex="1">
          <mxGeometry x="2885" y="780" width="60" height="40" as="geometry" />
        </mxCell>
        <mxCell id="8zIh_uZjIX3sih27jP3o-197" value="" style="endArrow=none;html=1;rounded=0;exitX=0.5;exitY=1;exitDx=0;exitDy=0;entryX=0.5;entryY=0;entryDx=0;entryDy=0;" parent="1" source="8zIh_uZjIX3sih27jP3o-195" target="8zIh_uZjIX3sih27jP3o-54" edge="1">
          <mxGeometry width="50" height="50" relative="1" as="geometry">
            <mxPoint x="3037" y="1194" as="sourcePoint" />
            <mxPoint x="3087" y="1144" as="targetPoint" />
          </mxGeometry>
        </mxCell>
        <mxCell id="8zIh_uZjIX3sih27jP3o-198" value="(1,n)" style="edgeLabel;html=1;align=center;verticalAlign=middle;resizable=0;points=[];" parent="8zIh_uZjIX3sih27jP3o-197" vertex="1" connectable="0">
          <mxGeometry x="-0.2152" y="-1" relative="1" as="geometry">
            <mxPoint x="1" as="offset" />
          </mxGeometry>
        </mxCell>
        <mxCell id="oFxeeBh7yfqg53vz1-ss-4" value="color" style="ellipse;whiteSpace=wrap;html=1;" parent="1" vertex="1">
          <mxGeometry x="2775" y="493" width="62" height="23" as="geometry" />
        </mxCell>
        <mxCell id="oFxeeBh7yfqg53vz1-ss-8" value="" style="endArrow=none;html=1;rounded=0;exitX=1;exitY=0;exitDx=0;exitDy=0;entryX=0.25;entryY=1;entryDx=0;entryDy=0;" parent="1" source="oFxeeBh7yfqg53vz1-ss-4" target="8zIh_uZjIX3sih27jP3o-33" edge="1">
          <mxGeometry width="50" height="50" relative="1" as="geometry">
            <mxPoint x="2987" y="578" as="sourcePoint" />
            <mxPoint x="3037" y="528" as="targetPoint" />
          </mxGeometry>
        </mxCell>
        <mxCell id="H_36VXY7kJ4LouZTHRj6-2" value="" style="endArrow=none;html=1;rounded=0;entryX=0.25;entryY=1;entryDx=0;entryDy=0;exitX=0.725;exitY=0.027;exitDx=0;exitDy=0;exitPerimeter=0;" parent="1" source="H_36VXY7kJ4LouZTHRj6-3" target="8zIh_uZjIX3sih27jP3o-33" edge="1">
          <mxGeometry width="50" height="50" relative="1" as="geometry">
            <mxPoint x="2840" y="523" as="sourcePoint" />
            <mxPoint x="2910" y="510" as="targetPoint" />
          </mxGeometry>
        </mxCell>
        <mxCell id="H_36VXY7kJ4LouZTHRj6-3" value="output_price" style="ellipse;whiteSpace=wrap;html=1;" parent="1" vertex="1">
          <mxGeometry x="2768" y="530" width="80" height="26" as="geometry" />
        </mxCell>
        <mxCell id="JPwa2dqpf56mqDd7Of3f-2" value="" style="endArrow=none;html=1;rounded=0;exitX=0.9;exitY=1.014;exitDx=0;exitDy=0;exitPerimeter=0;entryX=0;entryY=0.5;entryDx=0;entryDy=0;" edge="1" parent="1" source="8zIh_uZjIX3sih27jP3o-33" target="JPwa2dqpf56mqDd7Of3f-3">
          <mxGeometry width="50" height="50" relative="1" as="geometry">
            <mxPoint x="3073" y="580" as="sourcePoint" />
            <mxPoint x="3088" y="592" as="targetPoint" />
            <Array as="points">
              <mxPoint x="2960" y="592" />
            </Array>
          </mxGeometry>
        </mxCell>
        <mxCell id="JPwa2dqpf56mqDd7Of3f-6" value="(1,1)" style="edgeLabel;html=1;align=center;verticalAlign=middle;resizable=0;points=[];" vertex="1" connectable="0" parent="JPwa2dqpf56mqDd7Of3f-2">
          <mxGeometry x="0.2754" y="3" relative="1" as="geometry">
            <mxPoint as="offset" />
          </mxGeometry>
        </mxCell>
        <mxCell id="JPwa2dqpf56mqDd7Of3f-3" value="Chứa" style="rhombus;whiteSpace=wrap;html=1;" vertex="1" parent="1">
          <mxGeometry x="3075" y="568" width="68" height="43" as="geometry" />
        </mxCell>
        <mxCell id="JPwa2dqpf56mqDd7Of3f-4" value="" style="endArrow=none;html=1;rounded=0;exitX=1;exitY=0.5;exitDx=0;exitDy=0;entryX=0;entryY=0.5;entryDx=0;entryDy=0;" edge="1" parent="1" source="JPwa2dqpf56mqDd7Of3f-3" target="JPwa2dqpf56mqDd7Of3f-5">
          <mxGeometry width="50" height="50" relative="1" as="geometry">
            <mxPoint x="3134" y="713" as="sourcePoint" />
            <mxPoint x="3219" y="590" as="targetPoint" />
          </mxGeometry>
        </mxCell>
        <mxCell id="JPwa2dqpf56mqDd7Of3f-7" value="(1,n)" style="edgeLabel;html=1;align=center;verticalAlign=middle;resizable=0;points=[];" vertex="1" connectable="0" parent="JPwa2dqpf56mqDd7Of3f-4">
          <mxGeometry x="-0.2466" relative="1" as="geometry">
            <mxPoint as="offset" />
          </mxGeometry>
        </mxCell>
        <mxCell id="JPwa2dqpf56mqDd7Of3f-5" value="Inventory&lt;br&gt;(Kho)" style="rounded=0;whiteSpace=wrap;html=1;" vertex="1" parent="1">
          <mxGeometry x="3216" y="559.5" width="120" height="60" as="geometry" />
        </mxCell>
        <mxCell id="JPwa2dqpf56mqDd7Of3f-8" value="&lt;u&gt;inventory_id&lt;/u&gt;" style="ellipse;whiteSpace=wrap;html=1;" vertex="1" parent="1">
          <mxGeometry x="3351" y="498" width="89" height="42" as="geometry" />
        </mxCell>
        <mxCell id="JPwa2dqpf56mqDd7Of3f-9" value="product_id" style="ellipse;whiteSpace=wrap;html=1;" vertex="1" parent="1">
          <mxGeometry x="3371" y="560" width="88" height="42" as="geometry" />
        </mxCell>
        <mxCell id="JPwa2dqpf56mqDd7Of3f-10" value="stock_quantity" style="ellipse;whiteSpace=wrap;html=1;" vertex="1" parent="1">
          <mxGeometry x="3347" y="638" width="93" height="42" as="geometry" />
        </mxCell>
        <mxCell id="JPwa2dqpf56mqDd7Of3f-11" value="" style="endArrow=none;html=1;rounded=0;entryX=0;entryY=0.5;entryDx=0;entryDy=0;exitX=0.5;exitY=0;exitDx=0;exitDy=0;" edge="1" parent="1" source="JPwa2dqpf56mqDd7Of3f-5" target="JPwa2dqpf56mqDd7Of3f-8">
          <mxGeometry width="50" height="50" relative="1" as="geometry">
            <mxPoint x="3165" y="781" as="sourcePoint" />
            <mxPoint x="3215" y="731" as="targetPoint" />
          </mxGeometry>
        </mxCell>
        <mxCell id="JPwa2dqpf56mqDd7Of3f-12" value="" style="endArrow=none;html=1;rounded=0;entryX=0;entryY=0.5;entryDx=0;entryDy=0;exitX=0.75;exitY=1;exitDx=0;exitDy=0;" edge="1" parent="1" source="JPwa2dqpf56mqDd7Of3f-5" target="JPwa2dqpf56mqDd7Of3f-10">
          <mxGeometry width="50" height="50" relative="1" as="geometry">
            <mxPoint x="3187" y="740" as="sourcePoint" />
            <mxPoint x="3237" y="690" as="targetPoint" />
          </mxGeometry>
        </mxCell>
        <mxCell id="JPwa2dqpf56mqDd7Of3f-13" value="" style="endArrow=none;html=1;rounded=0;entryX=0;entryY=0.5;entryDx=0;entryDy=0;exitX=1;exitY=0.5;exitDx=0;exitDy=0;" edge="1" parent="1" source="JPwa2dqpf56mqDd7Of3f-5" target="JPwa2dqpf56mqDd7Of3f-9">
          <mxGeometry width="50" height="50" relative="1" as="geometry">
            <mxPoint x="2831" y="551" as="sourcePoint" />
            <mxPoint x="2881" y="501" as="targetPoint" />
          </mxGeometry>
        </mxCell>
      </root>
    </mxGraphModel>
  </diagram>
</mxfile>
